Coordinates
version=1
nRows=54
nColumns=12
inDegrees=yes

Units are S.I. units (second, meters, Newtons, ...)
Angles are in degrees

endheader
time	SC_y	SC_z	SC_x	AC_y	AC_z	AC_x	GH_y	GH_z	GH_yy	EL_x	PS_y
       0.0              -49.14          1.083          15.69          67.47          2.811         -11.95          137.6         -9.207         -24.18          131.7          145.8
   0.04902              -49.14          1.083          15.69          67.47          2.812         -11.95          137.6         -9.205         -24.18          131.7          145.8
   0.09803              -49.13          1.084          15.69          67.46          2.813         -11.95          137.6         -9.202         -24.19          131.6          145.8
    0.1471              -49.13          1.085          15.69          67.46          2.814         -11.95          137.6         -9.198          -24.2          131.6          145.8
    0.1961              -49.13          1.086          15.69          67.46          2.815         -11.94          137.6         -9.195          -24.2          131.6          145.8
    0.2451              -49.12          1.087          15.69          67.46          2.816         -11.94          137.6         -9.191         -24.21          131.6          145.8
    0.2941              -49.12          1.088          15.69          67.46          2.818         -11.94          137.6         -9.188         -24.22          131.6          145.8
    0.3431              -49.11          1.089          15.69          67.45          2.819         -11.94          137.6         -9.184         -24.23          131.5          145.8
    0.3921              -49.11           1.09          15.69          67.45          2.821         -11.94          137.6         -9.179         -24.24          131.5          145.8
    0.4412               -49.1          1.091          15.69          67.45          2.822         -11.94          137.6         -9.174         -24.25          131.5          145.8
    0.4902               -49.1          1.093          15.69          67.45          2.824         -11.93          137.6         -9.169         -24.26          131.5          145.8
    0.5392              -49.09          1.094          15.69          67.44          2.826         -11.93          137.6         -9.164         -24.28          131.4          145.8
    0.5882              -49.09          1.095          15.69          67.44          2.828         -11.93          137.6         -9.158         -24.29          131.4          145.7
    0.6372              -49.08          1.097          15.69          67.44           2.83         -11.93          137.6         -9.152          -24.3          131.4          145.7
    0.6862              -49.07          1.099          15.69          67.44          2.832         -11.92          137.6         -9.145         -24.32          131.3          145.7
    0.7353              -49.07          1.101          15.69          67.43          2.835         -11.92          137.6         -9.137         -24.34          131.3          145.7
    0.7843              -49.06          1.103          15.69          67.43          2.837         -11.92          137.7         -9.129         -24.35          131.3          145.7
    0.8333              -49.05          1.105          15.69          67.42           2.84         -11.91          137.7          -9.12         -24.37          131.2          145.7
    0.8823              -49.04          1.108          15.69          67.42          2.844         -11.91          137.7         -9.111          -24.4          131.2          145.7
    0.9313              -49.03           1.11          15.69          67.41          2.847          -11.9          137.7           -9.1         -24.42          131.1          145.7
    0.9803              -49.01          1.113          15.69          67.41          2.851          -11.9          137.7         -9.088         -24.45          131.0          145.6
     1.029               -49.0          1.117          15.69           67.4          2.856         -11.89          137.7         -9.076         -24.48          131.0          145.6
     1.078              -48.99           1.12          15.68          67.39           2.86         -11.89          137.7         -9.062         -24.51          130.9          145.6
     1.127              -48.97          1.124          15.68          67.39          2.866         -11.88          137.7         -9.046         -24.54          130.8          145.6
     1.176              -48.95          1.129          15.68          67.38          2.872         -11.88          137.7         -9.029         -24.58          130.7          145.6
     1.225              -48.93          1.134          15.68          67.37          2.878         -11.87          137.7         -9.009         -24.63          130.6          145.5
     1.274              -48.91           1.14          15.68          67.36          2.885         -11.86          137.8         -8.987         -24.68          130.5          145.5
     1.323              -48.88          1.146          15.68          67.34          2.894         -11.85          137.8         -8.963         -24.73          130.4          145.5
     1.372              -48.86          1.153          15.68          67.33          2.903         -11.84          137.8         -8.935          -24.8          130.2          145.4
     1.422              -48.82          1.161          15.68          67.32          2.914         -11.82          137.8         -8.904         -24.87          130.1          145.4
     1.471              -48.79           1.17          15.67           67.3          2.926         -11.81          137.8         -8.868         -24.95          129.9          145.3
      1.52              -48.74          1.181          15.67          67.28           2.94         -11.79          137.9         -8.827         -25.04          129.7          145.3
     1.569              -48.69          1.193          15.67          67.25          2.956         -11.77          137.9          -8.78         -25.15          129.4          145.2
     1.618              -48.64          1.208          15.67          67.23          2.974         -11.75          137.9         -8.725         -25.28          129.1          145.1
     1.667              -48.57          1.224          15.66          67.19          2.996         -11.72          138.0          -8.66         -25.42          128.8          145.0
     1.716              -48.49          1.244          15.66          67.16          3.022         -11.69          138.0         -8.584          -25.6          128.4          144.9
     1.765               -48.4          1.267          15.65          67.11          3.052         -11.65          138.1         -8.494          -25.8          127.9          144.8
     1.814              -48.29          1.295          15.65          67.06          3.089         -11.61          138.2         -8.386         -26.05          127.3          144.6
     1.863              -48.15          1.329          15.64          66.99          3.133         -11.55          138.3         -8.255         -26.35          126.6          144.4
     1.912              -47.98          1.371          15.63          66.91          3.188         -11.49          138.4         -8.095         -26.72          125.8          144.2
     1.961              -47.78          1.422          15.62          66.81          3.254          -11.4          138.5         -7.897         -27.17          124.8          143.9
      2.01              -47.52          1.485          15.61          66.69          3.338          -11.3          138.7         -7.651         -27.73          123.5          143.6
     2.059               -47.2          1.566          15.59          66.53          3.443         -11.17          138.9         -7.341         -28.44          121.8          143.1
     2.108              -46.79          1.668          15.57          66.34          3.576         -11.01          139.2         -6.947         -29.34          119.8          142.5
     2.157              -46.27          1.798          15.54          66.09          3.747          -10.8          139.6         -6.442         -30.49          117.1          141.8
     2.206               -45.6          1.966          15.51          65.76          3.966         -10.53          140.1         -5.795         -31.97          113.7          140.9
     2.255              -44.74           2.18          15.46          65.35          4.246         -10.19          140.7         -4.967         -33.85          109.3          139.7
     2.304              -43.66          2.449           15.4          64.83          4.598         -9.753          141.4         -3.927         -36.23          103.8          138.1
     2.353              -42.35          2.777          15.33           64.2          5.027         -9.226          142.3          -2.66         -39.12          97.17          136.3
     2.402              -40.82          3.157          15.25          63.46          5.525         -8.614          143.4         -1.191         -42.47          89.43          134.2
     2.451              -39.17          3.568          15.17          62.67          6.063         -7.953          144.6         0.4002          -46.1          81.04          131.9
       2.5              -37.52           3.98          15.08          61.87          6.602         -7.291          145.7          1.991         -49.73          72.66          129.6
     2.549               -36.0           4.36           15.0          61.14          7.099          -6.68          146.8           3.46         -53.09          64.92          127.4
     2.598              -34.68          4.688          14.93          60.51          7.528         -6.152          147.7          4.728         -55.98          58.24          125.6
